<svg width="30" height="30" viewBox="0 0 30 30" fill="currentColor" xmlns="http://www.w3.org/2000/svg">
<path fill-rule="evenodd" clip-rule="evenodd" d="M15 30C23.2843 30 30 23.2843 30 15C30 6.71574 23.2843 0 15 0C6.71574 0 0 6.71574 0 15C0 23.2843 6.71574 30 15 30ZM13.7097 14.5247C14.0232 14.3651 14.26 14.188 14.4203 13.9936C14.7084 13.6468 14.8515 13.1902 14.8515 12.6195C14.8515 12.0665 14.7102 11.5906 14.4248 11.1942C13.9492 10.5477 13.1437 10.2186 12.0076 10.2H7.5V19.5334H11.7033C12.1762 19.5334 12.6154 19.4911 13.021 19.4073C13.4253 19.3235 13.7771 19.1671 14.0744 18.9387C14.3383 18.7413 14.5579 18.4961 14.7347 18.2057C15.0127 17.7668 15.1494 17.2701 15.1494 16.7164C15.1494 16.181 15.0281 15.7249 14.7856 15.3493C14.5448 14.9724 14.1846 14.6987 13.7097 14.5247ZM9.65235 11.8211H11.3896C11.836 11.8211 12.2038 11.8706 12.4913 11.9671C12.8259 12.1056 12.9927 12.3938 12.9927 12.828C12.9927 13.221 12.8669 13.4946 12.6142 13.6486C12.3614 13.8027 12.0334 13.8799 11.6275 13.8799H9.65259H9.65235V11.8211ZM12.5701 17.7489C12.3437 17.8596 12.0302 17.9125 11.625 17.9125H9.65259V15.4252H11.656C12.056 15.429 12.3682 15.4811 12.5893 15.5834C12.9848 15.7634 13.1829 16.0984 13.1829 16.5833C13.1829 17.1581 12.9782 17.5454 12.5701 17.7489ZM21.0462 10.5876V11.5211H21.046H17.2875V10.5876H21.0462ZM21.9076 13.6821C22.1817 14.0801 22.3583 14.5405 22.4405 15.0648C22.486 15.3702 22.5064 15.8132 22.498 16.3922H17.6303C17.6572 17.0641 17.889 17.5341 18.3291 17.8028C18.5944 17.9714 18.9161 18.0538 19.2928 18.0538C19.6898 18.0538 20.0135 17.9533 20.2628 17.7471C20.3986 17.6378 20.5184 17.4834 20.6218 17.2885H22.4061C22.3594 17.6853 22.1446 18.0878 21.7584 18.4968C21.1604 19.147 20.3214 19.473 19.2441 19.473C18.3542 19.473 17.5698 19.1981 16.8889 18.6503C16.2104 18.1005 15.8695 17.209 15.8695 15.9721C15.8695 14.8124 16.1756 13.9245 16.7895 13.3068C17.4057 12.6876 18.2009 12.3795 19.1814 12.3795C19.7625 12.3795 20.2861 12.4835 20.7535 12.6922C21.2194 12.9011 21.6043 13.23 21.9076 13.6821ZM18.1385 14.2041C17.8901 14.4577 17.7358 14.8026 17.6724 15.2391H20.6845C20.6517 14.7746 20.4966 14.4228 20.2173 14.1826C19.9402 13.9415 19.5943 13.8206 19.1814 13.8206C18.732 13.8206 18.385 13.9499 18.1385 14.2041Z" fill="currentColor"/>
</svg>
