<svg width="99" height="88" viewBox="0 0 99 88" fill="none" xmlns="http://www.w3.org/2000/svg">
<circle cx="35" cy="35" r="35" fill="black"/>
<path d="M87.7 21.6H29.3C28.9817 21.6 28.6765 21.7264 28.4514 21.9514C28.2264 22.1765 28.1 22.4817 28.1 22.8V61.2C28.1 61.5182 28.2264 61.8235 28.4514 62.0485C28.6765 62.2735 28.9817 62.4 29.3 62.4H46.028L33.228 75.2C33.0033 75.425 32.877 75.73 32.877 76.048C32.877 76.366 33.0033 76.671 33.228 76.896L38.404 82.072C38.629 82.2967 38.934 82.4229 39.252 82.4229C39.57 82.4229 39.875 82.2967 40.1 82.072L59.772 62.4H87.7C88.0182 62.4 88.3235 62.2735 88.5485 62.0485C88.7735 61.8235 88.9 61.5182 88.9 61.2V22.8C88.9 22.4817 88.7735 22.1765 88.5485 21.9514C88.3235 21.7264 88.0182 21.6 87.7 21.6ZM39.3 79.504L35.796 76L63.636 48.16L69.508 45.76L67.108 51.632L39.3 79.504ZM86.5 60H62.172L68.988 53.184C69.1013 53.0722 69.191 52.9389 69.252 52.792L72.812 44.056C72.9189 43.832 72.9538 43.5805 72.9119 43.3359C72.8699 43.0913 72.7531 42.8658 72.5777 42.6903C72.4022 42.5148 72.1766 42.3981 71.9321 42.3561C71.6875 42.3141 71.4359 42.349 71.212 42.456L62.5 46.048C62.3532 46.1093 62.22 46.199 62.108 46.312L48.428 60H30.5V24H86.5V60Z" fill="url(#paint0_linear_11_366)"/>
<path d="M77.7 40.0001C78.8076 40.0001 79.8903 39.6716 80.8112 39.0563C81.7321 38.4409 82.4498 37.5663 82.8737 36.5431C83.2976 35.5198 83.4084 34.3938 83.1924 33.3075C82.9763 32.2213 82.4429 31.2234 81.6598 30.4403C80.8766 29.6571 79.8788 29.1237 78.7925 28.9077C77.7062 28.6916 76.5802 28.8025 75.5569 29.2263C74.5337 29.6502 73.6591 30.3679 73.0437 31.2889C72.4284 32.2098 72.1 33.2925 72.1 34.4001C72.1 35.8853 72.69 37.3096 73.7402 38.3599C74.7904 39.4101 76.2148 40.0001 77.7 40.0001ZM77.7 31.2001C78.3329 31.2001 78.9516 31.3877 79.4778 31.7393C80.004 32.091 80.4142 32.5907 80.6564 33.1755C80.8986 33.7602 80.962 34.4036 80.8385 35.0243C80.715 35.6451 80.4102 36.2153 79.9627 36.6628C79.5152 37.1103 78.945 37.4151 78.3243 37.5386C77.7035 37.662 77.0601 37.5987 76.4754 37.3565C75.8907 37.1143 75.3909 36.7041 75.0393 36.1779C74.6876 35.6516 74.5 35.033 74.5 34.4001C74.5 33.5514 74.8371 32.7374 75.4372 32.1373C76.0373 31.5372 76.8513 31.2001 77.7 31.2001Z" fill="url(#paint1_linear_11_366)"/>
<path d="M35.3 55.2H45.788C46.1062 55.2 46.4115 55.0735 46.6365 54.8485C46.8616 54.6234 46.988 54.3182 46.988 54C46.988 53.6817 46.8616 53.3765 46.6365 53.1514C46.4115 52.9264 46.1062 52.8 45.788 52.8H37.516L51.516 31.392L58.292 41.752C58.3754 41.8896 58.4858 42.0091 58.6163 42.1033C58.7469 42.1975 58.8951 42.2644 59.0521 42.3001C59.2091 42.3358 59.3717 42.3395 59.5302 42.3111C59.6887 42.2826 59.8398 42.2226 59.9746 42.1345C60.1094 42.0465 60.225 41.9322 60.3147 41.7985C60.4044 41.6648 60.4663 41.5144 60.4967 41.3563C60.527 41.1981 60.5253 41.0355 60.4915 40.8781C60.4577 40.7207 60.3926 40.5717 60.3 40.44L52.524 28.544C52.408 28.3868 52.2567 28.2591 52.0823 28.1711C51.9079 28.0831 51.7153 28.0372 51.52 28.0372C51.3247 28.0372 51.1321 28.0831 50.9577 28.1711C50.7833 28.2591 50.632 28.3868 50.516 28.544L34.292 53.344C34.1736 53.5252 34.1065 53.7352 34.0978 53.9515C34.089 54.1678 34.139 54.3824 34.2423 54.5727C34.3456 54.7629 34.4985 54.9217 34.6847 55.0321C34.8709 55.1425 35.0835 55.2005 35.3 55.2Z" fill="url(#paint2_linear_11_366)"/>
<defs>
<linearGradient id="paint0_linear_11_366" x1="28.1" y1="52.0114" x2="88.9" y2="52.0114" gradientUnits="userSpaceOnUse">
<stop stop-color="#F093FB"/>
<stop offset="1" stop-color="#F5576C"/>
</linearGradient>
<linearGradient id="paint1_linear_11_366" x1="72.1" y1="34.4001" x2="83.3" y2="34.4001" gradientUnits="userSpaceOnUse">
<stop stop-color="#F093FB"/>
<stop offset="1" stop-color="#F5576C"/>
</linearGradient>
<linearGradient id="paint2_linear_11_366" x1="34.0968" y1="41.6186" x2="60.5182" y2="41.6186" gradientUnits="userSpaceOnUse">
<stop stop-color="#F093FB"/>
<stop offset="1" stop-color="#F5576C"/>
</linearGradient>
</defs>
</svg>
