<svg width="99" height="88" viewBox="0 0 99 88" fill="none" xmlns="http://www.w3.org/2000/svg">
<circle cx="35" cy="35" r="35" fill="black"/>
<path d="M53 71.2H31V36.8H83V41.2C83 41.5182 83.1264 41.8234 83.3515 42.0485C83.5765 42.2735 83.8817 42.4 84.2 42.4C84.5182 42.4 84.8235 42.2735 85.0485 42.0485C85.2736 41.8234 85.4 41.5182 85.4 41.2V24.4C85.4 24.0817 85.2736 23.7765 85.0485 23.5514C84.8235 23.3264 84.5182 23.2 84.2 23.2H29.8C29.4817 23.2 29.1765 23.3264 28.9514 23.5514C28.7264 23.7765 28.6 24.0817 28.6 24.4V72.4C28.6 72.7182 28.7264 73.0234 28.9514 73.2485C29.1765 73.4735 29.4817 73.6 29.8 73.6H53C53.3182 73.6 53.6235 73.4735 53.8485 73.2485C54.0736 73.0234 54.2 72.7182 54.2 72.4C54.2 72.0817 54.0736 71.7765 53.8485 71.5514C53.6235 71.3264 53.3182 71.2 53 71.2ZM83 25.6V34.4H31V25.6H83Z" fill="url(#paint0_linear_11_358)"/>
<path d="M35.4 31.2H39.4C39.7183 31.2 40.0235 31.0736 40.2485 30.8486C40.4736 30.6235 40.6 30.3183 40.6 30C40.6 29.6818 40.4736 29.3766 40.2485 29.1515C40.0235 28.9265 39.7183 28.8 39.4 28.8H35.4C35.0818 28.8 34.7765 28.9265 34.5515 29.1515C34.3264 29.3766 34.2 29.6818 34.2 30C34.2 30.3183 34.3264 30.6235 34.5515 30.8486C34.7765 31.0736 35.0818 31.2 35.4 31.2Z" fill="url(#paint1_linear_11_358)"/>
<path d="M44.2 31.2H48.2C48.5183 31.2 48.8235 31.0736 49.0485 30.8486C49.2736 30.6235 49.4 30.3183 49.4 30C49.4 29.6818 49.2736 29.3766 49.0485 29.1515C48.8235 28.9265 48.5183 28.8 48.2 28.8H44.2C43.8817 28.8 43.5765 28.9265 43.3515 29.1515C43.1264 29.3766 43 29.6818 43 30C43 30.3183 43.1264 30.6235 43.3515 30.8486C43.5765 31.0736 43.8817 31.2 44.2 31.2Z" fill="url(#paint2_linear_11_358)"/>
<path d="M72.6 53.6C71.0177 53.6 69.471 54.0692 68.1554 54.9482C66.8398 55.8273 65.8144 57.0767 65.2089 58.5385C64.6034 60.0003 64.445 61.6088 64.7537 63.1607C65.0624 64.7125 65.8243 66.138 66.9431 67.2568C68.0619 68.3756 69.4874 69.1376 71.0392 69.4462C72.5911 69.7549 74.1996 69.5965 75.6614 68.991C77.1232 68.3855 78.3727 67.3601 79.2517 66.0445C80.1308 64.7289 80.6 63.1822 80.6 61.6C80.6 59.4782 79.7571 57.4434 78.2568 55.9431C76.7565 54.4428 74.7217 53.6 72.6 53.6ZM72.6 67.2C71.4924 67.2 70.4097 66.8715 69.4888 66.2562C68.5679 65.6409 67.8501 64.7663 67.4263 63.743C67.0024 62.7197 66.8915 61.5938 67.1076 60.5075C67.3237 59.4212 67.857 58.4233 68.6402 57.6402C69.4233 56.857 70.4212 56.3237 71.5075 56.1076C72.5938 55.8915 73.7197 56.0024 74.743 56.4262C75.7663 56.8501 76.6409 57.5679 77.2562 58.4888C77.8715 59.4097 78.2 60.4924 78.2 61.6C78.2 63.0852 77.61 64.5096 76.5598 65.5598C75.5096 66.61 74.0852 67.2 72.6 67.2Z" fill="url(#paint3_linear_11_358)"/>
<path d="M90.776 57.32L86.2 56.624C85.9663 55.9067 85.6775 55.2086 85.336 54.536L88.088 50.8C88.269 50.5655 88.3569 50.2724 88.3347 49.977C88.3125 49.6816 88.1819 49.4048 87.968 49.2L84.16 45.392C83.9551 45.178 83.6784 45.0474 83.383 45.0253C83.0876 45.0031 82.7945 45.091 82.56 45.272L78.84 48.016C78.171 47.6919 77.4783 47.4191 76.768 47.2L76.08 42.64C76.0414 42.3529 75.9002 42.0895 75.6826 41.8984C75.465 41.7072 75.1856 41.6013 74.896 41.6H69.504C69.2167 41.6007 68.9393 41.7044 68.722 41.8923C68.5048 42.0802 68.3621 42.3398 68.32 42.624L67.632 47.2C66.9091 47.4357 66.2056 47.7272 65.528 48.072L61.808 45.328C61.5735 45.147 61.2804 45.0591 60.985 45.0813C60.6896 45.1034 60.4128 45.234 60.208 45.448L56.4 49.256C56.186 49.4608 56.0554 49.7376 56.0332 50.033C56.0111 50.3284 56.099 50.6215 56.28 50.856L59.032 54.592C58.704 55.2475 58.4259 55.9267 58.2 56.624L53.608 57.32C53.3268 57.3656 53.0709 57.5097 52.8863 57.7266C52.7016 57.9435 52.6001 58.2191 52.6 58.504V63.896C52.6007 64.1832 52.7044 64.4607 52.8923 64.6779C53.0802 64.8952 53.3398 65.0378 53.624 65.08L58.24 65.776C58.4727 66.4795 58.7589 67.1641 59.096 67.824L56.32 71.584C56.139 71.8185 56.0511 72.1116 56.0732 72.407C56.0954 72.7024 56.226 72.9791 56.44 73.184L60.248 76.992C60.4528 77.2059 60.7296 77.3366 61.025 77.3587C61.3204 77.3809 61.6135 77.293 61.848 77.112L65.624 74.328C66.2793 74.6586 66.9585 74.9394 67.656 75.168L68.36 79.808C68.4076 80.0796 68.5474 80.3265 68.7558 80.5072C68.9641 80.6879 69.2283 80.7913 69.504 80.8H74.896C75.1832 80.7993 75.4607 80.6955 75.6779 80.5076C75.8952 80.3197 76.0378 80.0601 76.08 79.776L76.784 75.136C77.4814 74.9074 78.1607 74.6266 78.816 74.296L82.592 77.08C82.8265 77.261 83.1196 77.3489 83.415 77.3267C83.7104 77.3046 83.9871 77.1739 84.192 76.96L88 73.152C88.2139 72.9471 88.3445 72.6704 88.3667 72.375C88.3889 72.0796 88.301 71.7865 88.12 71.552L85.344 67.792C85.6796 67.1425 85.9657 66.4685 86.2 65.776L90.816 65.08C91.0928 65.0293 91.343 64.883 91.5229 64.6666C91.7027 64.4501 91.8008 64.1774 91.8 63.896V58.504C91.7992 58.2167 91.6955 57.9393 91.5076 57.722C91.3197 57.5048 91.0601 57.3621 90.776 57.32V57.32ZM89.4 62.864L85.056 63.52C84.8263 63.5552 84.6119 63.6564 84.4386 63.8112C84.2654 63.966 84.1408 64.1677 84.08 64.392C83.8012 65.4197 83.3898 66.4066 82.856 67.328C82.7391 67.53 82.6837 67.7617 82.6964 67.9947C82.7092 68.2277 82.7897 68.452 82.928 68.64L85.544 72.184L83.192 74.536L79.632 71.912C79.444 71.7737 79.2197 71.6932 78.9867 71.6804C78.7537 71.6677 78.522 71.7231 78.32 71.84C77.403 72.3674 76.4215 72.7734 75.4 73.048C75.1757 73.1088 74.974 73.2334 74.8192 73.4066C74.6644 73.5799 74.5632 73.7943 74.528 74.024L73.864 78.4H70.536L69.872 74.024C69.8367 73.7943 69.7355 73.5799 69.5807 73.4066C69.426 73.2334 69.2242 73.1088 69 73.048C67.9785 72.7733 66.9969 72.3673 66.08 71.84C65.878 71.7231 65.6463 71.6677 65.4132 71.6804C65.1802 71.6932 64.956 71.7737 64.768 71.912L61.208 74.536L58.856 72.184L61.48 68.64C61.6183 68.452 61.6987 68.2277 61.7115 67.9947C61.7243 67.7617 61.6689 67.53 61.552 67.328C61.0182 66.4066 60.6067 65.4197 60.328 64.392C60.2672 64.1677 60.1426 63.966 59.9693 63.8112C59.7961 63.6564 59.5816 63.5552 59.352 63.52L55 62.864V59.536L59.328 58.88C59.5601 58.8456 59.777 58.7438 59.9519 58.5874C60.1267 58.431 60.2519 58.2268 60.312 58C60.5876 56.9611 60.9992 55.9632 61.536 55.032C61.6529 54.83 61.7083 54.5983 61.6955 54.3652C61.6827 54.1322 61.6023 53.908 61.464 53.72L58.872 50.208L61.224 47.856L64.728 50.44C64.916 50.5783 65.1402 50.6587 65.3732 50.6715C65.6063 50.6843 65.838 50.6289 66.04 50.512C66.9754 49.9685 67.9788 49.5515 69.024 49.272C69.2508 49.2119 69.455 49.0867 69.6114 48.9119C69.7678 48.737 69.8696 48.5201 69.904 48.288L70.536 44H73.864L74.512 48.296C74.5464 48.5281 74.6481 48.745 74.8045 48.9199C74.9609 49.0947 75.1652 49.2199 75.392 49.28C76.4371 49.5595 77.4405 49.9765 78.376 50.52C78.5777 50.6379 78.8095 50.6939 79.0428 50.6811C79.276 50.6683 79.5004 50.5872 79.688 50.448L83.192 47.864L85.544 50.216L82.952 53.728C82.8137 53.916 82.7332 54.1402 82.7204 54.3732C82.7077 54.6063 82.7631 54.838 82.88 55.04C83.4168 55.9712 83.8283 56.9691 84.104 58.008C84.164 58.2348 84.2892 58.439 84.4641 58.5954C84.639 58.7518 84.8559 58.8536 85.088 58.888L89.416 59.544L89.4 62.864Z" fill="url(#paint4_linear_11_358)"/>
<defs>
<linearGradient id="paint0_linear_11_358" x1="28.6" y1="48.4" x2="85.4" y2="48.4" gradientUnits="userSpaceOnUse">
<stop stop-color="#F093FB"/>
<stop offset="1" stop-color="#F5576C"/>
</linearGradient>
<linearGradient id="paint1_linear_11_358" x1="34.2" y1="30" x2="40.6" y2="30" gradientUnits="userSpaceOnUse">
<stop stop-color="#F093FB"/>
<stop offset="1" stop-color="#F5576C"/>
</linearGradient>
<linearGradient id="paint2_linear_11_358" x1="43" y1="30" x2="49.4" y2="30" gradientUnits="userSpaceOnUse">
<stop stop-color="#F093FB"/>
<stop offset="1" stop-color="#F5576C"/>
</linearGradient>
<linearGradient id="paint3_linear_11_358" x1="64.6" y1="61.6" x2="80.6" y2="61.6" gradientUnits="userSpaceOnUse">
<stop stop-color="#F093FB"/>
<stop offset="1" stop-color="#F5576C"/>
</linearGradient>
<linearGradient id="paint4_linear_11_358" x1="52.6" y1="61.2" x2="91.8" y2="61.2" gradientUnits="userSpaceOnUse">
<stop stop-color="#F093FB"/>
<stop offset="1" stop-color="#F5576C"/>
</linearGradient>
</defs>
</svg>
