<svg width="99" height="88" viewBox="0 0 99 88" fill="none" xmlns="http://www.w3.org/2000/svg">
<circle cx="35" cy="35" r="35" fill="black"/>
<path d="M86.112 20.088C85.5199 19.4973 84.8077 19.0408 84.0237 18.7495C83.2396 18.4583 82.4021 18.3391 81.568 18.4C71.8287 19.1291 62.6793 23.3473 55.8 30.28L54.896 31.2H43.104C42.9445 31.2001 42.7867 31.232 42.6398 31.2939C42.4928 31.3557 42.3596 31.4462 42.248 31.56L29.744 44.36C29.5786 44.5287 29.4667 44.7425 29.4223 44.9745C29.3779 45.2065 29.403 45.4465 29.4944 45.6643C29.5858 45.8822 29.7395 46.0682 29.9362 46.199C30.1328 46.3299 30.3638 46.3998 30.6 46.4H42.104L45.184 49.48C40.511 49.6515 36.0804 51.6035 32.8 54.936C23 64.856 30.72 76.176 30.8 76.288C30.9462 76.4975 31.1554 76.6548 31.3973 76.7372C31.6391 76.8195 31.9009 76.8225 32.1445 76.7457C32.3882 76.669 32.601 76.5165 32.752 76.3104C32.903 76.1043 32.9842 75.8555 32.984 75.6C32.984 71.752 36.592 68.104 40.4 68.104C42.2283 68.1146 43.9777 68.8499 45.2645 70.1487C46.5513 71.4475 47.2704 73.2037 47.264 75.032C47.2677 75.2489 47.3302 75.4608 47.4447 75.645C47.5593 75.8292 47.7216 75.979 47.9145 76.0783C48.1074 76.1776 48.3235 76.2228 48.5401 76.209C48.7566 76.1952 48.9653 76.123 49.144 76C51.4502 74.2103 53.3196 71.92 54.6112 69.3021C55.9028 66.6842 56.5829 63.8071 56.6 60.888L59.8 64.088V75.6C59.8002 75.8372 59.8707 76.069 60.0026 76.2661C60.1344 76.4633 60.3218 76.6169 60.5409 76.7077C60.7601 76.7984 61.0012 76.8222 61.2338 76.776C61.4664 76.7297 61.6802 76.6156 61.848 76.448L74.648 63.648C74.8692 63.4271 74.9955 63.1286 75 62.816V51.304L75.92 50.4C82.8527 43.5207 87.0709 34.3714 87.8 24.632C87.8609 23.7979 87.7417 22.9604 87.4505 22.1763C87.1592 21.3923 86.7027 20.6801 86.112 20.088ZM43.608 33.6H52.496L42.096 44H33.448L43.608 33.6ZM49.352 72.664C48.836 70.6784 47.6771 68.9194 46.0562 67.6618C44.4353 66.4041 42.4436 65.7185 40.392 65.712C36.456 65.712 32.792 68.48 31.288 72.112C29.888 68.616 28.76 62.432 34.488 56.648C36.1876 54.9196 38.2596 53.6024 40.5459 52.7968C42.8322 51.9913 45.2723 51.7187 47.68 52L54.08 58.4C54.4039 60.9796 54.1475 63.599 53.3295 66.0668C52.5115 68.5346 51.1526 70.7886 49.352 72.664ZM72.6 62.32L62.2 72.72V64.104L72.6 53.704V62.32ZM74.2 48.72L72.952 49.968L72.912 50.008L61 61.904L44.296 45.2L56.224 33.272L56.264 33.232L57.512 32C63.9758 25.4734 72.5767 21.4968 81.736 20.8C82.2282 20.7559 82.7241 20.8204 83.1887 20.9889C83.6533 21.1574 84.0752 21.4259 84.4247 21.7753C84.7741 22.1248 85.0426 22.5467 85.2111 23.0113C85.3797 23.4759 85.4441 23.9718 85.4 24.464C84.7033 33.6233 80.7267 42.2242 74.2 48.688V48.72Z" fill="url(#paint0_linear_11_303)"/>
<path d="M69.8 29.6C68.0418 29.6009 66.3382 30.2115 64.9796 31.3276C63.6211 32.4437 62.6915 33.9963 62.3493 35.7209C62.0071 37.4456 62.2735 39.2355 63.1031 40.7857C63.9326 42.336 65.274 43.5507 66.8987 44.2228C68.5234 44.8949 70.3309 44.9829 72.0133 44.4718C73.6956 43.9607 75.1487 42.8821 76.1249 41.4198C77.1011 39.9574 77.5401 38.2019 77.3671 36.4521C77.1941 34.7024 76.4197 33.0668 75.176 31.824C74.4715 31.1163 73.6336 30.5553 72.7108 30.1735C71.788 29.7918 70.7986 29.5969 69.8 29.6ZM73.48 40.88C72.6301 41.7313 71.5113 42.2617 70.3142 42.3806C69.1171 42.4996 67.9158 42.1998 66.915 41.5324C65.9142 40.865 65.1757 39.8712 64.8254 38.7203C64.4751 37.5695 64.5346 36.3328 64.9939 35.2209C65.4531 34.1091 66.2836 33.1908 67.344 32.6227C68.4043 32.0545 69.6288 31.8715 70.809 32.1049C71.9891 32.3383 73.0517 32.9737 73.816 33.9027C74.5802 34.8318 74.9986 35.997 75 37.2C75.0026 37.8834 74.8695 38.5606 74.6086 39.1923C74.3477 39.8239 73.9641 40.3976 73.48 40.88Z" fill="url(#paint1_linear_11_303)"/>
<defs>
<linearGradient id="paint0_linear_11_303" x1="27.8358" y1="47.5928" x2="87.8155" y2="47.5928" gradientUnits="userSpaceOnUse">
<stop stop-color="#F093FB"/>
<stop offset="1" stop-color="#F5576C"/>
</linearGradient>
<linearGradient id="paint1_linear_11_303" x1="62.204" y1="37.2" x2="77.404" y2="37.2" gradientUnits="userSpaceOnUse">
<stop stop-color="#F093FB"/>
<stop offset="1" stop-color="#F5576C"/>
</linearGradient>
</defs>
</svg>
