<svg width="30" height="30" viewBox="0 0 30 30" fill="currentColor"  xmlns="http://www.w3.org/2000/svg">
<path fill-rule="evenodd" clip-rule="evenodd" d="M15 30C23.2843 30 30 23.2843 30 15C30 6.71574 23.2843 0 15 0C6.71574 0 0 6.71574 0 15C0 23.2843 6.71574 30 15 30ZM8.1093 12.7601L7.5 11.9611C7.5 11.9611 10.0513 8.91459 11.9923 8.53347C13.6007 8.21775 13.9506 10.3252 14.2628 12.2059C14.3502 12.7321 14.4347 13.2406 14.5429 13.6733C15.0219 15.5876 15.3433 16.6828 15.7615 16.6828C16.1803 16.6828 16.9801 15.6152 17.8555 13.9787C18.7323 12.3406 17.8178 10.8936 16.1039 11.9224C16.7899 7.81008 23.263 6.82131 22.4253 11.5415C21.5869 16.2632 16.9039 20.2615 15.4956 21.1746C14.0866 22.0877 12.8016 20.8092 12.3357 19.8419C12.0895 19.3328 11.6164 17.7855 11.1371 16.2179C10.5778 14.3886 10.01 12.5316 9.78447 12.2649C9.36561 11.7697 8.1093 12.7601 8.1093 12.7601Z" fill="currentColor"/>
</svg>
